<svg xmlns="http://www.w3.org/2000/svg" width="1162.832" height="579.184" viewBox="0 0 1162.832 579.184">
  <g id="logo_text" transform="translate(-995.168 -82)">
    <g id="Group_7" data-name="Group 7">
      <g id="Group_4" data-name="Group 4" transform="translate(-219 2)">
        <path id="Path_47" data-name="Path 47" d="M558.841,576.661a18.916,18.916,0,0,0-24.393-15.693l-27.69-33.193-24.275,11.907,39.761,46.326a19.018,19.018,0,0,0,36.6-9.347Z" transform="translate(1101.754 22.095)" fill="#fbbebe"/>
        <path id="Path_48" data-name="Path 48" d="M295.859,290.006l16.24,6.667,3.932,45.879,43.5,118.973-36.948,12.3-41.048-79.806Z" transform="translate(1271.624 111.87)" fill="#cbcbcb"/>
        <circle id="Ellipse_10" data-name="Ellipse 10" cx="43.258" cy="43.258" r="43.258" transform="translate(1473.486 279.449)" fill="#fbbebe"/>
        <path id="Path_49" data-name="Path 49" d="M467.352,391.936s1.9-26.279,25.318-15.564,21.891-18.82,14.814-24.039-6.853-6.511-32.737-3.019-76.137,9.408-59.888,61.453,40.179,38.5,40.179,38.5-22.13-46.673-9.043-37.75l13.087,8.923,6.906-1.463Z" transform="translate(1042.737 -89.359)" fill="#2f2e41"/>
        <path id="Path_53" data-name="Path 53" d="M514.31,439.656l-14.029-18.6-45.5-.745h0A88.631,88.631,0,0,0,407.8,498.55v117.7s.647,15.663-2.779,51.63c-2.956,31.033,162.193-18.186,162.193-18.186L545.77,475.027S547.493,447.2,514.31,439.656Z" transform="translate(1046.516 -54.493)" fill="#cbcbcb"/>
        <path id="Path_54" data-name="Path 54" d="M524.9,599.376A18.916,18.916,0,0,0,500.5,583.683l-27.689-33.192L448.537,562.4,488.3,608.724a19.018,19.018,0,0,0,36.6-9.347Z" transform="translate(1077.561 38.284)" fill="#fbbebe"/>
        <path id="Path_55" data-name="Path 55" d="M445.372,444.713l-14.419-4.8s-17.284,3.8-27.528,27.084.181,118.317.181,118.317l106.161,91.667,20.1-37.608-58.879-79.666S496.251,473.867,445.372,444.713Z" transform="translate(1042.199 -40.523)" fill="#cbcbcb"/>
      </g>
      <path id="Path_69" data-name="Path 69" d="M564.86,260.31l-.42-.91-16.34,7.54-2.73,1.26-2.72,1.25,23.04,49.95,2.72-1.26,2.73-1.26,16.34-7.54-.42-.9-16.34,7.54-.42-.91,16.34-7.54-.42-.91-16.34,7.54-.42-.91,16.34-7.54-.41-.91-16.35,7.54-.42-.9,16.35-7.54-.42-.91-16.35,7.54-.42-.91,16.35-7.54-.42-.91-16.34,7.54-.42-.91,16.34-7.54-.42-.9-16.34,7.54-.42-.91,16.34-7.54-.42-.91-16.34,7.54-.42-.91,16.35-7.54-.42-.91-16.35,7.54-.42-.9,16.35-7.55-.42-.9-16.35,7.54-.41-.91L579.94,293l-.42-.91-16.34,7.54-.42-.91,16.34-7.54-.42-.91-16.34,7.54-.42-.9,16.34-7.54-.41-.91L561.5,296l-.42-.91,16.35-7.54-.42-.91-16.35,7.54-.41-.91,16.34-7.53-.42-.91-16.34,7.54-.42-.91,16.34-7.54-.42-.91-16.34,7.54-.42-.91,16.34-7.54-.41-.91-16.35,7.55-.42-.91,16.35-7.54-.42-.91-16.35,7.54-.42-.91,16.35-7.54-.42-.91-16.34,7.54-.42-.91,16.34-7.54-.42-.9-16.34,7.54-.42-.91,16.34-7.54-.42-.91-16.34,7.54-.42-.91,16.35-7.54-.42-.9-16.35,7.53-.42-.9,16.35-7.54-.42-.91-16.35,7.54-.41-.91,16.34-7.54-.42-.91-16.34,7.54-.42-.91,16.34-7.54-.42-.9-16.34,7.54-.42-.91,16.34-7.54-.41-.91-16.35,7.54-.42-.91,16.35-7.54-.42-.91-16.35,7.54-.42-.9,16.35-7.54-.42-.91-16.35,7.54-.41-.91Z" transform="translate(679.01 17.968)"/>
      <g id="Group_5" data-name="Group 5" transform="translate(378 278)">
        <path id="Path_8" data-name="Path 8" d="M564.533,322c4.07,2.15,6.59,2.25,8.6,1.82s6,1.57,6,1.57c35.25,12.06,36.64,17.75,36.64,17.75l-40.81-14.41c-7.85-3.44-8-2.23-8-2.23-6,5.64-13.64,1.82-13.64,1.82s-10.57-5-7.46-9.81S560.453,319.89,564.533,322Zm-17-.9s3,8,13.79,6.7c0,0,5.3-.78,3.06-4.73,0,0-11-4.62-13.91-4.29s-2.91,2.36-2.91,2.36Z" transform="translate(293.01 -344.622)" fill="#e8e8f0"/>
        <path id="Path_9" data-name="Path 9" d="M564.533,322c4.07,2.15,6.59,2.25,8.6,1.82s6,1.57,6,1.57c35.25,12.06,36.64,17.75,36.64,17.75l-40.81-14.41c-7.85-3.44-8-2.23-8-2.23-6,5.64-13.64,1.82-13.64,1.82s-10.57-5-7.46-9.81S560.453,319.89,564.533,322Zm-17-.9s3,8,13.79,6.7c0,0,5.3-.78,3.06-4.73,0,0-11-4.62-13.91-4.29s-2.91,2.36-2.91,2.36Z" transform="translate(293.01 -344.622)" opacity="0.1"/>
        <path id="Path_10" data-name="Path 10" d="M555.8,299.7c6.1.2,7.37,4.76,7.37,4.76a8.79,8.79,0,0,1,.57,10.53l10.83,10.77a10.89,10.89,0,0,1,5.06,4s23.78,21,23.43,22.91c0,0-3.88,2-28.49-20.43l-6.46-5.72s-1.43-10.69-11.52-12.72c0,0-1,.44-1.53-1.94a11.339,11.339,0,0,0-2.23-3.07C551.489,307.55,549.7,299.49,555.8,299.7Zm-1.71,7.23s3.27,8.44,7.93,6,.13-8.07.13-8.07c-8.08-7.86-8.06,2.07-8.06,2.07Z" transform="translate(299.504 -344.622)" fill="#e8e8f0"/>
        <circle id="Ellipse_12" data-name="Ellipse 12" cx="1.29" cy="1.29" r="1.29" transform="translate(869.93 -19.242)" opacity="0.1"/>
      </g>
      <g id="Group_3" data-name="Group 3" transform="translate(190 -85)">
        <path id="Path_56" data-name="Path 56" d="M758.31,242.368a131.355,131.355,0,0,1,16.579,7.922c2.391,1.424,4.684,3,7.143,4.295a88.827,88.827,0,0,0,8.245,3.613,183.787,183.787,0,0,1,22.365,10.958c-.622-8.057.555-16.811,5.374-23.092a20.232,20.232,0,0,1,2.353-2.593c3.41-3.163,8.245-3.98,11.595-6.746-2.039-3.583-6.566-6.836-9.646-9.571q-4.992-4.415-10.358-8.372a147.477,147.477,0,0,0-22.747-13.813c-5.067-2.481-10.358-4.7-15.95-5.456a3.462,3.462,0,0,0-2.106.187,3.563,3.563,0,0,0-1.394,2.526c-1.042,4.834-1.574,9.8-2.443,14.668a62.578,62.578,0,0,1-1.731,7.413,90.458,90.458,0,0,1-3.23,8.477Q760.326,237.572,758.31,242.368Z" transform="translate(98.611 47.624)" fill="#fbbebe"/>
        <path id="Path_57" data-name="Path 57" d="M622.732,285.472a69.68,69.68,0,0,1,9.394-3.945,64.507,64.507,0,0,1,13.154-2.175q21.1-1.942,42.332-2.252a22.276,22.276,0,0,1,7.425.777,15.9,15.9,0,0,1,5.625,3.565,27.065,27.065,0,0,1,6.429,8.993,3.874,3.874,0,0,1,.4,2.78c-.321.9-1.607,1.5-2.338.862a11.348,11.348,0,0,1,3.921,12.457,7.066,7.066,0,0,1,3.913,5.825,39.606,39.606,0,0,1-17.566-.823,3.1,3.1,0,0,1,3.568,2.819,4.6,4.6,0,0,1-2.66,4.077,11,11,0,0,1-5.111.979c-6.806,0-13.428-2.229-20.218-2.516-5.191-.225-10.543.683-15.5-.777-5.753-1.724-10.888-6.609-16.819-5.592-4.733.815-7.819,5.064-10.9,8.621-4.934,5.677-11.033,10.275-17.084,14.834-4.661,3.51-9.53,7.114-15.308,8.3a7.253,7.253,0,0,1-8.646-3.347c-6.228-8.543-6.236-19.3-5.874-29.31.185-5.118,1.342-5.809,6.244-7.929q8.534-3.7,17-7.588Q613.467,289.883,622.732,285.472Z" transform="translate(359.573 28.168)" fill="#fbbebe"/>
        <path id="Path_58" data-name="Path 58" d="M727.538,311.217a15.806,15.806,0,0,0,2.818,1.327c1.642.39,3.313-.307,4.909-.847,6.746-2.249,14.241-1.716,20.761-4.5a47.218,47.218,0,0,0,7.787,35.114c1.349,1.919,3.125,3.882,5.464,4.032-1.042,3.2-4.25,5.134-7.293,6.573a78.3,78.3,0,0,1-15.17,5.352c-1.5.352-3.328.525-4.2-.75-.525-.75-.75-2.031-1.671-1.986-1.409,1.5-.944,4.572-2.893,5.247a3.749,3.749,0,0,1-1.851,0l-4.347-.75a7.967,7.967,0,0,1-3.658-1.259,7.166,7.166,0,0,1-1.671-2.129c-4.872-8.3-6.745-17.9-7.495-27.379a100.757,100.757,0,0,1-.5-14.42C718.829,310.8,724.016,309.576,727.538,311.217Z" transform="translate(191.194 20.628)" fill="#e8e8f0"/>
        <path id="Path_59" data-name="Path 59" d="M727.538,311.217a15.806,15.806,0,0,0,2.818,1.327c1.642.39,3.313-.307,4.909-.847,6.746-2.249,14.241-1.716,20.761-4.5a47.218,47.218,0,0,0,7.787,35.114c1.349,1.919,3.125,3.882,5.464,4.032-1.042,3.2-4.25,5.134-7.293,6.573a78.3,78.3,0,0,1-15.17,5.352c-1.5.352-3.328.525-4.2-.75-.525-.75-.75-2.031-1.671-1.986-1.409,1.5-.944,4.572-2.893,5.247a3.749,3.749,0,0,1-1.851,0l-4.347-.75a7.967,7.967,0,0,1-3.658-1.259,7.166,7.166,0,0,1-1.671-2.129c-4.872-8.3-6.745-17.9-7.495-27.379a100.757,100.757,0,0,1-.5-14.42C718.829,310.8,724.016,309.576,727.538,311.217Z" transform="translate(191.194 20.628)" opacity="0.1"/>
        <path id="Path_60" data-name="Path 60" d="M758.33,211.854c7.9,17.366,23.467,34.477,43.794,34.477a49.464,49.464,0,0,0,4.969-.247,20.237,20.237,0,0,1,2.354-2.593c3.41-3.163,8.245-3.98,11.595-6.746-2.039-3.583-6.566-6.836-9.646-9.571q-4.992-4.415-10.358-8.372a147.471,147.471,0,0,0-22.747-13.813c-5.067-2.481-10.358-4.7-15.949-5.456a3.462,3.462,0,0,0-2.106.187,3.563,3.563,0,0,0-1.394,2.526C757.8,207.042,759.2,206.982,758.33,211.854Z" transform="translate(109.519 47.619)" opacity="0.1"/>
        <ellipse id="Ellipse_11" data-name="Ellipse 11" cx="50.217" cy="50.217" rx="50.217" ry="50.217" transform="translate(861.426 192.01)" fill="#fbbebe"/>
        <path id="Path_61" data-name="Path 61" d="M739.985,371.187a91.275,91.275,0,0,0,4.257,17.831c.75,2.106,1.671,4.16,2.623,6.183,5.584,11.835,8.649,24.629,10.111,37.64a20.806,20.806,0,0,0,.562,3.036c1.1,4.2,3.425,7.945,5.2,11.895a96.866,96.866,0,0,1,4.5,13.139,7.331,7.331,0,0,1,.42,3.53,13.134,13.134,0,0,1-1.836,3.4c-3.328,5.734.517,12.742,1.814,19.232.442,2.249.637,4.692,2.1,6.446,1.244,1.5,3.178,2.189,5.014,2.818A567.579,567.579,0,0,0,854.9,517.2c4.055.75,8.245,1.447,12.27.7s8.035-3.238,9.414-7.12c.794-2.248.66-4.692.592-7.075-.15-5.007,0-10.043.27-15.088.869-16.6,2.841-33.263-1.5-49.168-1.3-4.692-3.125-9.219-4.594-13.858-2.871-9.047-3.613-18.4-4.332-27.784-.592-7.735-1.169-15.5-2.9-23.13-1.289-5.689-.435-11.6-.36-17.433a65.649,65.649,0,0,0-11.243-37.475,23.593,23.593,0,0,1-3.4-6c-.959-3.148-.3-6.528.135-9.8a68.777,68.777,0,0,0-1.3-24.966,25.481,25.481,0,0,0-3.455-8.612,28.912,28.912,0,0,0-7.218-6.708,189.622,189.622,0,0,0-50.839-26.045c-1.671,4.227-3.275,9.166-4.557,13.491-.172.585-.292,1.327.187,1.7s.974.172,1.5.187a2.7,2.7,0,0,1,2.316,1.986,4.9,4.9,0,0,1-.285,3.178c-1.019,2.623-3.216,4.579-5.329,6.431l-10.628,9.271a26.02,26.02,0,0,1-4.145,3.163c-1.334.75-2.788,1.282-4.16,1.971-5.5,2.781-9.3,8.2-11.422,13.986s-1.162,12.742-3.927,18.235C736.792,329.454,736.867,351,739.985,371.187Z" transform="translate(67.079 38.052)" fill="#e8e8f0"/>
        <path id="Path_62" data-name="Path 62" d="M875.285,670.08a80.361,80.361,0,0,0,.232,39.611c.607,2.316,1.319,4.714.839,7.06-.277,1.334-.929,2.586-1.079,3.942a11.54,11.54,0,0,0,.4,3.673c3.328,15.74,2.136,32.094.794,48.156.57,0,.75.262,1.349.262h14.443c.255-4.22,5.5-7.383,8.065-10.748A27.821,27.821,0,0,0,905.1,738.66c-2.249-8.994-8.874-16.182-12.269-24.779-3.747-9.459-3.425-20.169-7.405-29.523C883.14,678.954,878.868,674.734,875.285,670.08Z" transform="translate(-61.236 -70.272)" fill="#3f3d56"/>
        <path id="Path_63" data-name="Path 63" d="M875.285,670.08a80.361,80.361,0,0,0,.232,39.611c.607,2.316,1.319,4.714.839,7.06-.277,1.334-.929,2.586-1.079,3.942a11.54,11.54,0,0,0,.4,3.673c3.328,15.74,2.136,32.094.794,48.156.57,0,.75.262,1.349.262h14.443c.255-4.22,5.5-7.383,8.065-10.748A27.821,27.821,0,0,0,905.1,738.66c-2.249-8.994-8.874-16.182-12.269-24.779-3.747-9.459-3.425-20.169-7.405-29.523C883.14,678.954,878.868,674.734,875.285,670.08Z" transform="translate(-61.236 -70.272)" opacity="0.1"/>
        <path id="Path_64" data-name="Path 64" d="M780.98,573.7c12.277-1.964,24.172,4.22,36.029,7.975,18.116,5.734,38.06,6.086,54.8,15.088a13.992,13.992,0,0,1,4,2.893,11.461,11.461,0,0,1,2.466,5.861,20.8,20.8,0,0,1-2.6,13.754,47.842,47.842,0,0,0-3.163,5.291c-1.919,4.5-.637,9.684-.307,14.6.75,10.98-3.508,21.668-4.362,32.641-.51,6.468.157,13.079-1.364,19.39-.952,3.957-2.743,7.69-3.485,11.692s-.42,7.915-.667,11.872c-.7,11.34-5.861,22.358-4.6,33.653l-97.436.322c3.613-12.569,6.618-25.566,3.343-38.225a90.1,90.1,0,0,0-4.227-11.73c-5.449-13.169-11.048-26.375-14.053-40.3s-3.275-28.8,1.814-42.107c5.666-14.84,17.711-27.185,20.334-42.849C771.993,572.925,776.475,574.424,780.98,573.7Z" transform="translate(63.379 -46.036)" fill="#3f3d56"/>
        <path id="Path_65" data-name="Path 65" d="M794.716,143.354c.944-1.979,3.62-3.283,5.419-2.031s1.566,4.047,2.009,6.3c.854,4.422,5.247,7.435,9.744,8.14,2.106.337,4.452.2,6.086-1.162a8.469,8.469,0,0,0,2.248-3.665c4.5-11.992,1.761-25.993-5.6-36.456a25.653,25.653,0,0,0-5.734-6.131c-6.2-4.5-14.488-4.5-22.155-4.257a10.494,10.494,0,0,1-4.61-.532,12.742,12.742,0,0,1-3.058-2.249c-7.263-6.386-17.3-9.069-26.982-8.642s-19,3.748-27.6,8.162a42.278,42.278,0,0,0-11.37,7.825c-7.742,7.967-9.631,19.772-11.153,30.775-1.634,11.872-3.26,24.074-.51,35.744,1.559,6.611,4.5,13.071,4.152,19.854a160.309,160.309,0,0,0,18.948,4.19c3,.472,6.461.75,8.657-1.372a8.572,8.572,0,0,0,1.979-3.508c2.376-7.023,1.582-15.043,5.172-21.533a18.063,18.063,0,0,1,14.818-9.129c2.354-.082,5.029.495,6.236,2.511a15.5,15.5,0,0,1,1.064,3.088c1.664,5.014,8.477,7.5,12.966,4.7,2.249-1.409,3.785-3.748,5.816-5.5,2.578-2.211,5.884-3.35,8.777-5.134C799.671,157.363,790.984,151.187,794.716,143.354Z" transform="translate(151.898 74.378)" fill="#3f3d56"/>
        <path id="Path_66" data-name="Path 66" d="M738.292,386.8a36.554,36.554,0,0,0,2.811,9.324c3,7.5,6.213,14.915,10.74,21.563,3.118,4.579,6.828,8.717,10.081,13.191a151.372,151.372,0,0,1,9.174,14.788q7.668,13.581,14.945,27.387a93.1,93.1,0,0,0,7.608,12.832,88.427,88.427,0,0,0,6.746,7.675c5.246,5.531,10.635,10.643,15.327,16.639,2.323,3,6.2,4.152,9.819,5.172a13.356,13.356,0,0,0,3.747.675,12.941,12.941,0,0,0,3.748-.832,94.98,94.98,0,0,0,11.842-4.5c.87-16.6,2.841-33.263-1.5-49.168-1.3-4.692-3.125-9.219-4.594-13.858-2.87-9.047-3.613-18.4-4.332-27.784-.892-1.881-1.844-3.748-2.766-5.561-6.251-12.352-11.52-25.955-9.894-39.724a74.179,74.179,0,0,0,.862-7.5,28.238,28.238,0,0,0-1.537-9.047,50.021,50.021,0,0,0-28.481-30.73,15.941,15.941,0,0,0-6.745-1.5c-3,.157-5.869,1.716-8.792,1.147-9.9,4.355-17.913,11.79-23.9,20.8s-6.318,21.046-12.832,29.68A13.235,13.235,0,0,0,738.292,386.8Z" transform="translate(99.577 15.956)" opacity="0.1"/>
        <path id="Path_67" data-name="Path 67" d="M597.8,435.308a242.448,242.448,0,0,0,16.8-18.483c5.157-6.078,10.328-12.187,14.48-18.985,2.571-4.2,4.864-8.792,8.814-11.737,3-2.249,6.663-3.3,9.976-5.014,2.383-1.237,4.579-2.8,6.933-4.085a32.978,32.978,0,0,1,16.744-3.95c2.421.082,5.172.645,6.416,2.728.427.712.63,1.544,1.064,2.249,1.342,2.249,4.572,2.886,5.674,5.247,1.859,3.972-3.748,7.622-4.1,11.992-.165,2.189,1.042,4.227,1.394,6.393.6,3.748-1.342,7.323-3.215,10.591-4.01,7-8.889,14.668-16.767,16.429-2.788.622-5.734.42-8.454,1.3a20,20,0,0,0-6,3.575,98.187,98.187,0,0,0-19.367,20.394c-2.533,3.575-4.827,7.308-7.383,10.86A88.291,88.291,0,0,1,589.65,491.6l-9.2-29.231c-1.417-4.5-2.533-10.665,1.5-14.173C587,443.65,592.828,440.06,597.8,435.308Z" transform="translate(379.779 4.136)" fill="#fbbebe"/>
        <path id="Path_68" data-name="Path 68" d="M731.321,322.037c2.923.562,5.824-.989,8.792-1.147a15.9,15.9,0,0,1,6.746,1.5,50.052,50.052,0,0,1,28.481,30.73,28.523,28.523,0,0,1,1.514,9.076c-.045,2.511-.57,4.984-.862,7.5-1.626,13.746,3.643,27.357,9.886,39.724,3.455,6.828,7.353,14.031,6.536,21.638a4.22,4.22,0,0,0,.352,3c.75.989,2.368,1.042,3.065,2.084s.06,2.616.615,3.792c.75,1.664,3.193,1.462,4.939.869a39.722,39.722,0,0,0,13.064-7.42c6.228,3.635,12.892,7.967,14.938,14.878a33.017,33.017,0,0,1,1,5.381l3.215,26.832c.427,3.553.637,7.72-2.046,10.088-4.624,4.092-12.861-1.207-17.808,2.5a15.135,15.135,0,0,0-3,3.635c-5.4,7.413-14.705,10.673-23.43,13.491a13.17,13.17,0,0,1-3.747.824,12.741,12.741,0,0,1-3.748-.675c-3.628-1.019-7.5-2.2-9.819-5.164-4.7-6-10.088-11.108-15.335-16.639a90.876,90.876,0,0,1-6.745-7.675,92.853,92.853,0,0,1-7.607-12.839q-7.263-13.806-14.93-27.387a151.2,151.2,0,0,0-9.256-14.72c-3.26-4.5-6.963-8.619-10.081-13.191-4.5-6.656-7.727-14.106-10.74-21.563a36.78,36.78,0,0,1-2.818-9.324,12.906,12.906,0,0,1,2.1-9.3c6.513-8.642,6.836-20.671,12.824-29.68S721.412,326.384,731.321,322.037Z" transform="translate(146.144 17.199)" fill="#e8e8f0"/>
        <g id="Group_2" data-name="Group 2" transform="translate(851.835 209.963)" opacity="0.1">
          <path id="Path_32" data-name="Path 32" d="M738.36,190.129c1.559,6.611,4.5,13.071,4.152,19.854a160.318,160.318,0,0,0,18.948,4.19c3,.472,6.461.75,8.657-1.372a8.576,8.576,0,0,0,1.979-3.508c2.376-7.023,1.581-15.043,5.171-21.533a18.064,18.064,0,0,1,14.818-9.129c2.353-.082,5.029.495,6.236,2.511a15.5,15.5,0,0,1,1.064,3.088c1.664,5.014,8.477,7.5,12.967,4.7,2.248-1.409,3.785-3.748,5.816-5.5,2.578-2.211,5.884-3.35,8.777-5.134,2.608-1.6,3.86-3.223,4.392-4.894.66,3.605.847,6.918-4.392,10.141-2.893,1.784-6.2,2.923-8.777,5.134-2.031,1.739-3.538,4.092-5.816,5.5-4.5,2.781-11.3.315-12.967-4.7a15.494,15.494,0,0,0-1.064-3.088c-1.207-2.016-3.882-2.593-6.236-2.511a18.063,18.063,0,0,0-14.818,9.129c-3.59,6.491-2.8,14.51-5.172,21.533a8.574,8.574,0,0,1-2.009,3.53c-2.2,2.1-5.666,1.844-8.657,1.372a160.309,160.309,0,0,1-18.948-4.19c.367-6.783-2.593-13.244-4.152-19.854a62.956,62.956,0,0,1-1.432-16.489,57.835,57.835,0,0,0,1.461,11.22Z" transform="translate(-736.834 -155.819)"/>
          <path id="Path_33" data-name="Path 33" d="M700.256,159.812a11.716,11.716,0,0,1,.75-7.345c.944-1.979,3.62-3.283,5.419-2.031s1.544,4.047,1.986,6.3c.854,4.422,5.246,7.435,9.743,8.14,2.106.337,4.452.2,6.086-1.162a8.471,8.471,0,0,0,2.249-3.665,34.824,34.824,0,0,0,2.076-9.7,35.708,35.708,0,0,1-2.076,14.945,8.47,8.47,0,0,1-2.248,3.665c-1.634,1.364-3.98,1.5-6.086,1.162-4.445-.7-8.859-3.748-9.743-8.14-.427-2.249-.135-4.969-1.994-6.258s-4.5.052-5.419,2.031a10.132,10.132,0,0,0-.742,2.061Z" transform="translate(-606.204 -149.944)"/>
        </g>
      </g>
    </g>
    <g id="Group_6" data-name="Group 6" transform="translate(-440 1)">
      <text id="Quick" transform="translate(1850 320)" fill="#4285f4" font-size="181" font-family="SitkaSmall, Sitka Small"><tspan x="0" y="0">Quick</tspan></text>
      <text id="Saloon" transform="translate(2067 469)" font-size="181" font-family="SegoeUI-Italic, Segoe UI" font-style="italic"><tspan x="0" y="0">Saloon</tspan></text>
    </g>
  </g>
</svg>
